<mxfile host="Electron" agent="Mozilla/5.0 (Windows NT 10.0; Win64; x64) AppleWebKit/537.36 (KHTML, like Gecko) draw.io/24.7.17 Chrome/128.0.6613.36 Electron/32.0.1 Safari/537.36" version="24.7.17">
  <diagram name="Page-1" id="mVKp-ErFaPJlbh7j13vV">
    <mxGraphModel dx="1098" dy="828" grid="1" gridSize="10" guides="1" tooltips="1" connect="1" arrows="1" fold="1" page="1" pageScale="1" pageWidth="827" pageHeight="1169" math="0" shadow="0">
      <root>
        <mxCell id="0" />
        <mxCell id="1" parent="0" />
        <mxCell id="wRCD1cR3Z30sDnLN0XmB-1" value="Vehicle Controller" style="rounded=1;whiteSpace=wrap;html=1;fillColor=#f8cecc;strokeColor=#b85450;" vertex="1" parent="1">
          <mxGeometry x="530" y="380" width="120" height="60" as="geometry" />
        </mxCell>
        <mxCell id="wRCD1cR3Z30sDnLN0XmB-11" style="edgeStyle=orthogonalEdgeStyle;rounded=0;orthogonalLoop=1;jettySize=auto;html=1;exitX=0.5;exitY=1;exitDx=0;exitDy=0;entryX=0.5;entryY=1;entryDx=0;entryDy=0;" edge="1" parent="1" source="wRCD1cR3Z30sDnLN0XmB-2" target="wRCD1cR3Z30sDnLN0XmB-1">
          <mxGeometry relative="1" as="geometry">
            <Array as="points">
              <mxPoint x="280" y="620" />
              <mxPoint x="590" y="620" />
            </Array>
          </mxGeometry>
        </mxCell>
        <mxCell id="wRCD1cR3Z30sDnLN0XmB-12" value="Analog SIgnal&lt;br&gt;Injection" style="edgeLabel;html=1;align=center;verticalAlign=middle;resizable=0;points=[];" vertex="1" connectable="0" parent="wRCD1cR3Z30sDnLN0XmB-11">
          <mxGeometry x="0.164" y="2" relative="1" as="geometry">
            <mxPoint x="-55" y="-8" as="offset" />
          </mxGeometry>
        </mxCell>
        <mxCell id="wRCD1cR3Z30sDnLN0XmB-2" value="Hardware Fault Injector" style="rounded=1;whiteSpace=wrap;html=1;fillColor=#d5e8d4;strokeColor=#82b366;" vertex="1" parent="1">
          <mxGeometry x="220" y="380" width="120" height="60" as="geometry" />
        </mxCell>
        <mxCell id="wRCD1cR3Z30sDnLN0XmB-7" style="edgeStyle=orthogonalEdgeStyle;rounded=0;orthogonalLoop=1;jettySize=auto;html=1;" edge="1" parent="1" source="wRCD1cR3Z30sDnLN0XmB-3" target="wRCD1cR3Z30sDnLN0XmB-1">
          <mxGeometry relative="1" as="geometry">
            <Array as="points">
              <mxPoint x="435" y="350" />
              <mxPoint x="590" y="350" />
            </Array>
          </mxGeometry>
        </mxCell>
        <mxCell id="wRCD1cR3Z30sDnLN0XmB-8" value="CAN &lt;br&gt;Bus" style="edgeLabel;html=1;align=center;verticalAlign=middle;resizable=0;points=[];" vertex="1" connectable="0" parent="wRCD1cR3Z30sDnLN0XmB-7">
          <mxGeometry x="-0.1889" y="-2" relative="1" as="geometry">
            <mxPoint x="-3" as="offset" />
          </mxGeometry>
        </mxCell>
        <mxCell id="wRCD1cR3Z30sDnLN0XmB-9" style="edgeStyle=orthogonalEdgeStyle;rounded=0;orthogonalLoop=1;jettySize=auto;html=1;exitX=0.5;exitY=1;exitDx=0;exitDy=0;entryX=0.5;entryY=0;entryDx=0;entryDy=0;" edge="1" parent="1" source="wRCD1cR3Z30sDnLN0XmB-3" target="wRCD1cR3Z30sDnLN0XmB-2">
          <mxGeometry relative="1" as="geometry">
            <Array as="points">
              <mxPoint x="435" y="350" />
              <mxPoint x="280" y="350" />
            </Array>
          </mxGeometry>
        </mxCell>
        <mxCell id="wRCD1cR3Z30sDnLN0XmB-10" value="CAN &lt;br&gt;Bus" style="edgeLabel;html=1;align=center;verticalAlign=middle;resizable=0;points=[];" vertex="1" connectable="0" parent="wRCD1cR3Z30sDnLN0XmB-9">
          <mxGeometry x="0.1755" relative="1" as="geometry">
            <mxPoint x="40" as="offset" />
          </mxGeometry>
        </mxCell>
        <mxCell id="wRCD1cR3Z30sDnLN0XmB-3" value="PCAN Device" style="rounded=1;whiteSpace=wrap;html=1;fillColor=#e1d5e7;strokeColor=#9673a6;" vertex="1" parent="1">
          <mxGeometry x="375" y="270" width="120" height="60" as="geometry" />
        </mxCell>
        <mxCell id="wRCD1cR3Z30sDnLN0XmB-5" value="" style="edgeStyle=orthogonalEdgeStyle;rounded=0;orthogonalLoop=1;jettySize=auto;html=1;" edge="1" parent="1" source="wRCD1cR3Z30sDnLN0XmB-4" target="wRCD1cR3Z30sDnLN0XmB-3">
          <mxGeometry relative="1" as="geometry" />
        </mxCell>
        <mxCell id="wRCD1cR3Z30sDnLN0XmB-6" value="USB &lt;br&gt;Connection" style="edgeLabel;html=1;align=center;verticalAlign=middle;resizable=0;points=[];" vertex="1" connectable="0" parent="wRCD1cR3Z30sDnLN0XmB-5">
          <mxGeometry y="3" relative="1" as="geometry">
            <mxPoint as="offset" />
          </mxGeometry>
        </mxCell>
        <mxCell id="wRCD1cR3Z30sDnLN0XmB-4" value="&lt;font style=&quot;font-size: 14px;&quot;&gt;Automated Testing Software&amp;nbsp;&lt;/font&gt;" style="rounded=1;whiteSpace=wrap;html=1;" vertex="1" parent="1">
          <mxGeometry x="340" y="110" width="190" height="90" as="geometry" />
        </mxCell>
      </root>
    </mxGraphModel>
  </diagram>
</mxfile>
